<svg xmlns="http://www.w3.org/2000/svg" viewBox="0 0 800 800" font-family="Georgia, 'Times New Roman', serif">
  <defs>
    <linearGradient id="bg" x1="0" y1="0" x2="1" y2="1">
      <stop offset="0" stop-color="#F2ECFB"/>
      <stop offset="1" stop-color="#DFCEF4"/>
    </linearGradient>
    <linearGradient id="glass" x1="0" y1="0" x2="0" y2="1">
      <stop offset="0" stop-color="#FFFFFF" stop-opacity=".95"/>
      <stop offset=".55" stop-color="#FFFFFF" stop-opacity=".65"/>
      <stop offset="1" stop-color="#CDB4E8"/>
    </linearGradient>
    <linearGradient id="cap" x1="0" y1="0" x2="0" y2="1">
      <stop offset="0" stop-color="#3E2A5C"/>
      <stop offset="1" stop-color="#3E2A5C" stop-opacity=".75"/>
    </linearGradient>
  </defs>

  <rect width="800" height="800" fill="url(#bg)"/>
  <circle cx="400" cy="400" r="290" fill="#ffffff" opacity=".38"/>
  <circle cx="400" cy="400" r="218" fill="#ffffff" opacity=".4"/>

  <!-- sparkles -->
  <g fill="#7B3FBE" opacity=".5">
    <circle cx="235" cy="245" r="7"/><circle cx="585" cy="205" r="5"/>
    <circle cx="620" cy="560" r="6"/><circle cx="190" cy="540" r="5"/>
  </g>
  <g stroke="#C9A227" stroke-width="2.5" stroke-linecap="round" opacity=".8">
    <path d="M560 300v28M546 314h28"/>
    <path d="M215 380v22M204 391h22"/>
  </g>

  <!-- podium -->
  <ellipse cx="400" cy="668" rx="228" ry="34" fill="#3E2A5C" opacity=".12"/>

  <!-- bottle -->
  <rect x="372" y="238" width="56" height="72" fill="url(#glass)" stroke="#7B3FBE" stroke-opacity=".25" stroke-width="3"/>
  <rect x="352" y="168" width="96" height="82" rx="16" fill="url(#cap)"/>
  <rect x="368" y="184" width="64" height="12" rx="6" fill="#ffffff" opacity=".28"/>
  <circle cx="400" cy="465" r="165" fill="url(#glass)" stroke="#7B3FBE" stroke-opacity=".35" stroke-width="4"/>
  <!-- glass highlight -->
  <rect x="318" y="330" width="24" height="255" rx="12" fill="#ffffff" opacity=".6"/>
  <circle cx="345" cy="315" r="10" fill="#ffffff" opacity=".55"/>

  <!-- label -->
  <rect x="310" y="445" width="180" height="86" rx="12" fill="#ffffff" opacity=".9"/>
  <rect x="310" y="445" width="180" height="86" rx="12" fill="none" stroke="#7B3FBE" stroke-opacity=".3" stroke-width="2"/>
  <text x="400" y="499" font-size="21" letter-spacing="1.5" fill="#3E2A5C" text-anchor="middle" font-weight="600">Marc Jacobs</text>
  <text x="400" y="519" font-size="11" letter-spacing="3" fill="#7B3FBE" text-anchor="middle" opacity=".8">EAU DE PARFUM</text>

  <!-- brand footer -->
  <text x="400" y="745" font-size="20" letter-spacing="8" fill="#3E2A5C" text-anchor="middle" opacity=".65">VIOLET</text>
</svg>